<svg viewBox="0 0 512 512" xmlns="http://www.w3.org/2000/svg"><path d="m256 112c30.88 0 56-25.12 56-56s-25.1-56-56-56-56.9 25.12-56.9 56 26 56 56.9 56zm255.1 85.4c0-5.178-2.509-10.2-7.096-13.26l-27.604-15.94c-2.5-1.75-5.497-2.62-8.497-2.62-5.501.125-10.63 2.87-13.75 7.245-9.001 12-23.16 19.13-38.16 19.13-3.125 0-6.089-.2528-9.089-.8778-23.13-4.25-38.88-26.25-38.88-49.75-.924-7.3272-6.924-13.3272-13.424-13.3272h-38.75c-6.001 0-11.63 4-12.88 9.875-4.77 22.225-24.27 38.125-47.87 38.125-22.75 0-42.25-15.88-47-38.12-.4-5.88-5.9-9.88-12-9.88h-38.75c-8.25 0-14.25 6-14.25 13.4 0 18.49-13.66 50.62-47.95 50.62-15.13 0-29.3-7.118-38.3-19.24-2.25-4.38-7.19-7.08-12.7-7.18-3 0-5.931.8951-8.432 2.645l-28.63 16c-4.579 2.955-7.088 8.055-7.088 13.155 0 2.438.5583 4.901 1.72 7.185l108.18 227.415h53.13l-93.18-195.6c8.5 2.4 17.26 3.6 26.13 3.6 2.432 0 56.83 1.503 84.76-52.5 17.36 23 45.86 36.5 75.16 36.5 29.38 0 57.01-13.38 75.26-36.25 4.94 9.85 29.44 52.25 84.84 52.25 8.751 0 17.5-1.125 26-3.5l-93 195.5h53.13l108.1-227.4c1.17-2.3.87-4.8.87-7.2zm-87.1 266.6h-336.02c-13.26 0-24 10.75-24 23.1s10.74 24.9 24 24.9h336c13.26 0 24-10.75 24-23.1s-10.68-24.9-23.98-24.9z"/></svg>