<svg height="1000" width="1000" xmlns="http://www.w3.org/2000/svg"><path d="m404 464c37.333 0 65.667 13.333 85 40s29.667 53.333 31 80v40c0 37.333-6.667 69.333-20 96s-30 46-50 58-39.667 21-59 27-35.667 9.667-49 11h-20-322v-646h322c52 0 94.333 14.667 127 44s49 72 49 128c0 33.333-7.667 60.333-23 81s-31 33-47 37c0 0-24 4-24 4m-262-180v144h170c17.333 0 30.667-5 40-15s14-30.333 14-61c0-20-3.667-35.667-11-47s-15-17.667-23-19c0 0-10-2-10-2zm172 416c49.333 0 74-28 74-84 0-26.667-5.333-47.333-16-62s-21.333-22.667-32-24c0 0-18-2-18-2h-180v172zm468-366c46.667 0 86 9.667 118 29s54.333 42.667 67 70 21.667 54.667 27 82 7.333 50.333 6 69c0 0-2 30-2 30h-320c0 36 9 63.333 27 82s36.333 28 55 28c0 0 26 2 26 2 30.667 0 54.333-5.667 71-17s25.667-22.333 27-33c0 0 2-18 2-18h108c0 54.667-17.667 96-53 124s-70.333 42.667-105 44c0 0-54 2-54 2-48 0-88.667-8.333-122-25s-57.333-37.333-72-62-25.667-49-33-73-11-44-11-60v-26c0-6.667.333-15.667 1-27s5.333-31.333 14-60 20.667-53.667 36-75 39.333-41 72-59 71-27 115-27zm98 194c0-2.667-.333-6.333-1-11s-2.667-12.667-6-24-7.667-21.333-13-30-14.667-16.667-28-24-28.667-11-46-11c-28 0-51.333 8.333-70 25s-30 33.667-34 51c0 0-6 24-6 24zm26-320v78h-256v-78z"/></svg>