<svg fill="none" height="24" width="24" xmlns="http://www.w3.org/2000/svg"><path d="M12 14l9-5-9-5-9 5z"/><path d="M12 14l6.16-3.422a12.083 12.083 0 0 1 .665 6.479A11.952 11.952 0 0 0 12 20.055a11.952 11.952 0 0 0-6.824-2.998 12.078 12.078 0 0 1 .665-6.479z"/><path d="M12 14l9-5-9-5-9 5zm0 0l6.16-3.422a12.083 12.083 0 0 1 .665 6.479A11.952 11.952 0 0 0 12 20.055a11.952 11.952 0 0 0-6.824-2.998 12.078 12.078 0 0 1 .665-6.479zm-4 6v-7.5l4-2.222" stroke="#374151" stroke-linecap="round" stroke-linejoin="round" stroke-width="2"/></svg>