<svg fill="none" height="24" viewBox="0 0 24 24" width="24" xmlns="http://www.w3.org/2000/svg"><path d="m12 14 9-5-9-5-9 5z"/><path d="m12 14 6.1591-3.4217c.5426 1.3683.8409 2.8601.8409 4.4216 0 .7014-.0602 1.3886-.1756 2.057-2.6101.2537-4.9754 1.3437-6.8244 2.9986-1.849-1.6549-4.21429-2.7449-6.82438-2.9986-.11545-.6684-.17562-1.3557-.17562-2.057 0-1.5615.29824-3.0533.84088-4.4217z"/><path d="m12 14 9-5-9-5-9 5zm0 0 6.1591-3.4217c.5426 1.3683.8409 2.8601.8409 4.4216 0 .7014-.0602 1.3886-.1756 2.057-2.6101.2537-4.9754 1.3437-6.8244 2.9986-1.849-1.6549-4.21429-2.7449-6.82438-2.9986-.11545-.6684-.17562-1.3557-.17562-2.057 0-1.5615.29824-3.0533.84088-4.4217zm-4 5.9999v-7.4999l4-2.2222" stroke="#374151" stroke-linecap="round" stroke-linejoin="round" stroke-width="2"/></svg>