<svg fill="none" height="20" viewBox="0 0 20 20" width="20" xmlns="http://www.w3.org/2000/svg"><g fill="#374151"><path d="m10.3939 2.08085c-.2515-.1078-.53627-.1078-.78782 0l-7 3c-.36768.15758-.60608.51912-.60608.91915s.2384.76157.60608.91915l2.64429 1.13326c.09616-.10894.21669-.19768.35571-.25726l4-1.71428c.50762-.21756 1.09552.01759 1.31302.52522.2176.50763-.0176 1.09551-.5252 1.31307l-2.72722 1.16881 1.9394.83118c.25155.10785.53632.10785.78782 0l7-3c.3677-.15758.6061-.51912.6061-.91915s-.2384-.76157-.6061-.91915z"/><path d="m3.31004 9.39673 1.68996.72427v4.1016c-.34277-.0777-.69295-.1359-1.04929-.1732-.46977-.0493-.84101-.4205-.89027-.8903-.03998-.3813-.06044-.7681-.06044-1.1593 0-.8965.10741-1.7683.31004-2.60307z"/><path d="m9.29996 16.5725c-.67288-.6596-1.44829-1.2141-2.29996-1.6374v-3.957l1.81824.7793c.75465.3234 1.60886.3234 2.36356 0l5.5082-2.36067c.2026.83477.31 1.70657.31 2.60307 0 .3912-.0205.778-.0604 1.1593-.0493.4698-.4205.841-.8903.8903-2.0728.2173-3.9369 1.1386-5.3493 2.5231-.3888.3812-1.01119.3812-1.40004 0z"/><path d="m6 18c.55228 0 1-.4477 1-1v-2.0649c-.62864-.3124-1.29883-.5534-2-.7125v2.7774c0 .5523.44772 1 1 1z"/></g></svg>